<svg width="19" height="19" viewBox="0 0 19 19" fill="none" xmlns="http://www.w3.org/2000/svg">
<path d="M0.5 4.50283C0.5 3.49596 0.5 2.99253 0.668147 2.59541C0.892342 2.06592 1.32237 1.64524 1.86362 1.42592C2.26957 1.26143 2.78419 1.26143 3.81343 1.26143C4.84268 1.26143 5.3573 1.26143 5.76324 1.42592C6.3045 1.64524 6.73452 2.06592 6.95872 2.59541C7.12687 2.99253 7.12687 3.49596 7.12687 4.50283C7.12687 5.5097 7.12687 6.01314 6.95872 6.41025C6.73452 6.93974 6.3045 7.36042 5.76324 7.57974C5.3573 7.74423 4.84268 7.74423 3.81343 7.74423C2.78419 7.74423 2.26957 7.74423 1.86362 7.57974C1.32237 7.36042 0.892342 6.93974 0.668147 6.41025C0.5 6.01314 0.5 5.5097 0.5 4.50283Z" fill="black"/>
<path d="M0.5 15.3075C0.5 14.3006 0.5 13.7972 0.668147 13.4001C0.892342 12.8706 1.32237 12.4499 1.86362 12.2306C2.26957 12.0661 2.78419 12.0661 3.81343 12.0661C4.84268 12.0661 5.3573 12.0661 5.76324 12.2306C6.3045 12.4499 6.73452 12.8706 6.95872 13.4001C7.12687 13.7972 7.12687 14.3006 7.12687 15.3075C7.12687 16.3144 7.12687 16.8178 6.95872 17.2149C6.73452 17.7444 6.3045 18.1651 5.76324 18.3844C5.3573 18.5489 4.84268 18.5489 3.81343 18.5489C2.78419 18.5489 2.26957 18.5489 1.86362 18.3844C1.32237 18.1651 0.892342 17.7444 0.668147 17.2149C0.5 16.8178 0.5 16.3144 0.5 15.3075Z" fill="black"/>
<path d="M11.5448 15.3075C11.5448 14.3006 11.5448 13.7972 11.7129 13.4001C11.9371 12.8706 12.3671 12.4499 12.9084 12.2306C13.3143 12.0661 13.829 12.0661 14.8582 12.0661C15.8875 12.0661 16.4021 12.0661 16.808 12.2306C17.3493 12.4499 17.7793 12.8706 18.0035 13.4001C18.1716 13.7972 18.1716 14.3006 18.1716 15.3075C18.1716 16.3144 18.1716 16.8178 18.0035 17.2149C17.7793 17.7444 17.3493 18.1651 16.808 18.3844C16.4021 18.5489 15.8875 18.5489 14.8582 18.5489C13.829 18.5489 13.3143 18.5489 12.9084 18.3844C12.3671 18.1651 11.9371 17.7444 11.7129 17.2149C11.5448 16.8178 11.5448 16.3144 11.5448 15.3075Z" fill="black"/>
<path d="M15.6866 1.26143C15.6866 0.813887 15.3157 0.45108 14.8582 0.45108C14.4007 0.45108 14.0299 0.813887 14.0299 1.26143V3.69248H11.5448C11.0873 3.69248 10.7164 4.05529 10.7164 4.50283C10.7164 4.95038 11.0873 5.31318 11.5448 5.31318H14.0299V7.74423C14.0299 8.19178 14.4007 8.55458 14.8582 8.55458C15.3157 8.55458 15.6866 8.19178 15.6866 7.74423V5.31318H18.1716C18.6291 5.31318 19 4.95038 19 4.50283C19 4.05529 18.6291 3.69248 18.1716 3.69248H15.6866V1.26143Z" fill="black"/>
</svg>
