<svg width="19" height="20" viewBox="0 0 19 20" fill="none" xmlns="http://www.w3.org/2000/svg">
<path d="M4.33208 3.64269C6.74727 1.88795 7.95486 1.01058 9.33399 0.959984C9.44463 0.955925 9.55537 0.955925 9.66601 0.959984C11.0451 1.01058 12.2527 1.88795 14.6679 3.64269C17.0831 5.39742 18.2907 6.27479 18.765 7.57079C18.803 7.67475 18.8373 7.78008 18.8676 7.88655C19.2457 9.21382 18.7844 10.6334 17.8619 13.4727L16.3032 18.2697C16.0556 19.0319 15.3453 19.5479 14.5439 19.5479C13.5222 19.5479 12.694 18.7197 12.694 17.698V15.2084C12.694 14.2498 11.9168 13.4727 10.9582 13.4727H8.04184C7.08319 13.4727 6.30605 14.2498 6.30605 15.2084V17.698C6.30605 18.7197 5.47781 19.5479 4.45614 19.5479C3.65471 19.5479 2.94442 19.0319 2.69677 18.2697L1.13813 13.4727C0.215606 10.6334 -0.245655 9.21382 0.132403 7.88655C0.162731 7.78008 0.196953 7.67475 0.235 7.57079C0.709292 6.27479 1.91689 5.39742 4.33208 3.64269Z" fill="black"/>
</svg>
