<svg width="19" height="19" viewBox="0 0 19 19" fill="none" xmlns="http://www.w3.org/2000/svg">
<path d="M8.26554 6.33514C8.34203 6.32657 8.50703 6.34123 8.89939 6.53411C9.2867 6.72451 9.78198 7.02839 10.5016 7.47127C11.2209 7.91394 11.7159 8.21947 12.065 8.48239C12.4142 8.74538 12.5248 8.90007 12.5679 9.00346C12.6996 9.31859 12.6996 9.68141 12.5679 9.99654C12.5248 10.0999 12.4142 10.2546 12.065 10.5176C11.7159 10.7805 11.2209 11.0861 10.5016 11.5287C9.78198 11.9716 9.2867 12.2755 8.89939 12.4659C8.50703 12.6588 8.34203 12.6734 8.26554 12.6649C7.9815 12.633 7.70846 12.4726 7.52356 12.2013C7.46112 12.1097 7.38786 11.9225 7.34785 11.4577C7.30834 10.9986 7.30769 10.3835 7.30769 9.5C7.30769 8.61649 7.30834 8.00139 7.34785 7.54232C7.38786 7.0775 7.46112 6.89028 7.52356 6.79868C7.70846 6.5274 7.9815 6.36696 8.26554 6.33514Z" fill="black"/>
<path fill-rule="evenodd" clip-rule="evenodd" d="M9.45591 1.28944e-07H9.54409C11.3335 -7.82751e-06 12.7362 -1.41561e-05 13.8491 0.120556C14.9847 0.243596 15.9049 0.499188 16.6905 1.06999C17.1662 1.41556 17.5844 1.83383 17.93 2.30946C18.5008 3.09511 18.7564 4.01527 18.8794 5.15093C19 6.26376 19 7.66642 19 9.45582V9.54411C19 11.3335 19 12.7362 18.8794 13.8491C18.7564 14.9847 18.5008 15.9049 17.93 16.6905C17.5844 17.1662 17.1662 17.5844 16.6905 17.93C15.9049 18.5008 14.9847 18.7564 13.8491 18.8794C12.7362 19 11.3336 19 9.54418 19H9.45589C7.66649 19 6.26376 19 5.15093 18.8794C4.01527 18.7564 3.09511 18.5008 2.30946 17.93C1.83383 17.5844 1.41556 17.1662 1.06999 16.6905C0.499188 15.9049 0.243596 14.9847 0.120556 13.8491C-1.41561e-05 12.7362 -7.82751e-06 11.3335 1.28944e-07 9.54409V9.45591C-7.82751e-06 7.66647 -1.41561e-05 6.26378 0.120556 5.15093C0.243596 4.01527 0.499188 3.09511 1.06999 2.30946C1.41556 1.83383 1.83383 1.41556 2.30946 1.06999C3.09511 0.499188 4.01527 0.243596 5.15093 0.120556C6.26378 -1.41561e-05 7.66647 -7.82751e-06 9.45591 1.28944e-07ZM11.2351 6.20653C10.5559 5.78856 10.0014 5.44726 9.54418 5.22249C9.08473 4.99663 8.60633 4.82628 8.10282 4.88269C7.37507 4.96422 6.72896 5.36946 6.31587 5.97553C6.03551 6.38686 5.93739 6.8861 5.89169 7.417C5.84614 7.94632 5.84615 8.62472 5.84615 9.46499V9.535C5.84615 10.3753 5.84614 11.0537 5.89169 11.583C5.93739 12.1139 6.03551 12.6131 6.31587 13.0245C6.72896 13.6305 7.37506 14.0358 8.10282 14.1173C8.60633 14.1737 9.08473 14.0034 9.54418 13.7775C10.0014 13.5527 10.5559 13.2115 11.235 12.7935L11.2994 12.7539C11.9792 12.3355 12.5336 11.9944 12.9442 11.6851C13.3611 11.3711 13.7226 11.0244 13.9166 10.5598C14.1987 9.88426 14.1987 9.11574 13.9166 8.44016C13.7226 7.97564 13.3611 7.62887 12.9442 7.3149C12.5336 7.00565 11.9792 6.66449 11.2994 6.24612L11.2351 6.20653Z" fill="black"/>
</svg>
