<svg width="21" height="20" viewBox="0 0 21 20" fill="none" xmlns="http://www.w3.org/2000/svg">
<path d="M3.14176 4.06511C3.89085 4 4.83826 4 6.11111 4H7.88889C10.378 4 11.6226 4 12.5733 4.48693C13.4096 4.91524 14.0895 5.59868 14.5156 6.43929C15 7.39494 15 8.64596 15 11.148V13.5594C15 13.8093 15 13.9342 14.995 14.0398C14.9173 15.6899 13.9536 17.1034 12.5704 17.8113L13.9415 18.7893C14.8365 19.4277 16.0126 18.5058 15.6041 17.486C15.3147 16.7636 15.8475 15.9779 16.6266 15.9779H17.2283C19.3114 15.9779 21 14.2916 21 12.2114V7.98893C21 5.19254 21 3.79435 20.455 2.72627C19.9757 1.78676 19.2108 1.02292 18.27 0.544213C17.2004 0 15.8003 0 13 0H11C8.19974 0 6.7996 0 5.73005 0.544213C4.78924 1.02292 4.02433 1.78676 3.54497 2.72627C3.34788 3.11254 3.22207 3.54198 3.14176 4.06511Z" fill="black"/>
<path fill-rule="evenodd" clip-rule="evenodd" d="M13.5761 7.15232C14 7.99554 14 9.09938 14 11.3071V13.4348C14 13.6552 14 13.7655 13.9956 13.8586C13.9008 15.8891 12.2982 17.5136 10.295 17.6097C10.2031 17.6141 10.0818 17.6141 9.83917 17.6141L9.77691 17.6142C8.98339 17.6193 8.21041 17.8704 7.56175 18.3337L7.5205 18.3635L5.48993 19.8337C4.79383 20.3377 3.87911 19.6098 4.19681 18.8048C4.42186 18.2345 4.00751 17.6141 3.40154 17.6141H2.93351C1.31338 17.6141 0 16.2828 0 14.6406V11.3071C0 9.09938 0 7.99554 0.423864 7.15232C0.796704 6.4106 1.39163 5.80757 2.12337 5.42964C2.95525 5 4.04424 5 6.22222 5H7.77778C9.95576 5 11.0448 5 11.8766 5.42964C12.6084 5.80757 13.2033 6.4106 13.5761 7.15232ZM4 13C4.55228 13 5 12.5523 5 12C5 11.4477 4.55228 11 4 11C3.44772 11 3 11.4477 3 12C3 12.5523 3.44772 13 4 13ZM8 12C8 12.5523 7.55228 13 7 13C6.44772 13 6 12.5523 6 12C6 11.4477 6.44772 11 7 11C7.55228 11 8 11.4477 8 12ZM10 13C10.5523 13 11 12.5523 11 12C11 11.4477 10.5523 11 10 11C9.44771 11 9 11.4477 9 12C9 12.5523 9.44771 13 10 13Z" fill="black"/>
</svg>
