<svg width="19" height="22" viewBox="0 0 19 22" fill="none" xmlns="http://www.w3.org/2000/svg">
<path d="M16.7047 6.0284C16.7047 7.18645 15.7659 8.12523 14.6078 8.12523C13.4498 8.12523 12.511 7.18645 12.511 6.0284C12.511 4.87035 13.4498 3.93156 14.6078 3.93156C15.7659 3.93156 16.7047 4.87035 16.7047 6.0284Z" fill="black"/>
<path fill-rule="evenodd" clip-rule="evenodd" d="M8.23005 0C4.67009 0 1.91571 3.12012 2.35727 6.65259L2.44047 7.31817C2.56221 8.2921 2.20645 9.26493 1.48513 9.93055C-0.00957892 11.3098 -0.424852 13.5052 0.462791 15.3351L0.571145 15.5585C1.35342 17.1712 2.94184 18.2274 4.71503 18.3377L4.91242 18.6761C5.97425 20.4964 7.62866 21.4926 9.36592 21.4926C11.1032 21.4926 12.7576 20.4964 13.8194 18.6761L14.0199 18.3324C15.5094 18.2147 16.8674 17.4051 17.6774 16.1324C18.9168 14.185 18.5885 11.6303 16.8971 10.0595L16.8511 10.0168C16.467 9.66006 16.1796 9.22248 16.0035 8.74404C15.5375 9.01711 14.9949 9.17365 14.4157 9.17365C12.6787 9.17365 11.2705 7.76547 11.2705 6.0284C11.2705 4.29132 12.6787 2.88315 14.4157 2.88315C14.6692 2.88315 14.9156 2.91313 15.1517 2.96972C14.1344 1.20694 12.2307 0 10.0154 0H8.23005ZM9.36592 19.9199C8.40019 19.9199 7.36982 19.4352 6.57372 18.3473H12.1581C11.362 19.4352 10.3317 19.9199 9.36592 19.9199Z" fill="black"/>
</svg>
