<svg width="20" height="21" viewBox="0 0 20 21" fill="none" xmlns="http://www.w3.org/2000/svg">
<path d="M5 6.75C5 4.12665 7.12665 2 9.75 2C12.3734 2 14.5 4.12665 14.5 6.75C14.5 9.37335 12.3734 11.5 9.75 11.5C7.12665 11.5 5 9.37335 5 6.75Z" fill="black"/>
<path fill-rule="evenodd" clip-rule="evenodd" d="M8.89616 8.36674e-08H10.6038C12.0596 -5.10194e-06 13.201 -9.15676e-06 14.1164 0.0792464C15.0488 0.159977 15.8168 0.327186 16.5057 0.703347C17.4731 1.23162 18.2684 2.02685 18.7967 2.99432C19.1728 3.6832 19.34 4.45118 19.4208 5.38362C19.5 6.29902 19.5 7.44034 19.5 8.89612V12.0498C19.5 12.1087 19.5 12.1445 19.4997 12.1757C19.4782 14.1683 18.4439 15.9166 16.8903 16.931C16.0034 17.5101 14.9462 17.8511 13.8121 17.8633C13.781 17.8636 13.7454 17.8636 13.6871 17.8636L13.6753 17.8636L13.6741 17.8636C13.6071 17.864 13.543 17.8913 13.4963 17.9393L13.1354 18.3142C12.4899 18.985 11.9525 19.5432 11.4674 19.9268C10.956 20.3311 10.4125 20.6159 9.75 20.6159C9.0875 20.6159 8.54398 20.3311 8.03257 19.9268C7.54744 19.5432 7.01013 18.9849 6.36457 18.3142L6.00452 17.9401L6.00371 17.9393C5.95698 17.8913 5.89293 17.864 5.82593 17.8636L5.8247 17.8636L5.81294 17.8636C5.75458 17.8636 5.71899 17.8636 5.68795 17.8633C4.55376 17.8511 3.49659 17.5101 2.60969 16.931C1.05611 15.9166 0.0218399 14.1683 0.000335121 12.1757C8.36735e-08 12.1446 8.36671e-08 12.109 8.36671e-08 12.0505V8.89616C-5.10194e-06 7.44035 -9.15676e-06 6.29902 0.0792464 5.38362C0.159977 4.45118 0.327186 3.6832 0.703347 2.99432C1.23162 2.02685 2.02685 1.23162 2.99432 0.703347C3.6832 0.327186 4.45118 0.159977 5.38362 0.0792464C6.29903 -9.15676e-06 7.44036 -5.10194e-06 8.89616 8.36674e-08ZM5.51301 1.57366C4.67944 1.64583 4.14438 1.78442 3.71319 2.01987C2.99811 2.41033 2.41033 2.99811 2.01987 3.71319C1.78442 4.14438 1.64583 4.67944 1.57366 5.51301C1.50066 6.35616 1.5 7.43267 1.5 8.93182V12.0449C1.5 12.1107 1.50001 12.1376 1.50025 12.1595C1.51288 13.33 1.99774 14.387 2.77505 15.1489C3.62316 13.8554 5.08606 13 6.75 13H12.75C14.4139 13 15.8768 13.8554 16.7249 15.1489C17.5023 14.387 17.9871 13.33 17.9998 12.1595C18 12.1376 18 12.1107 18 12.0449V8.93182C18 7.43267 17.9993 6.35616 17.9263 5.51301C17.8542 4.67944 17.7156 4.14438 17.4801 3.71319C17.0897 2.99811 16.5019 2.41033 15.7868 2.01987C15.3556 1.78442 14.8206 1.64583 13.987 1.57366C13.1438 1.50066 12.0673 1.5 10.5682 1.5H8.93182C7.43267 1.5 6.35616 1.50066 5.51301 1.57366Z" fill="black"/>
</svg>
