<svg width="20" height="22" viewBox="0 0 20 22" fill="none" xmlns="http://www.w3.org/2000/svg">
<path fill-rule="evenodd" clip-rule="evenodd" d="M7.35707 2.52388C8.25483 -0.621892 12.713 -0.621892 13.6108 2.52388C13.8975 3.52848 14.9296 4.12436 15.9429 3.87035C19.1161 3.07495 21.3452 6.93584 19.0698 9.28622C18.3431 10.0368 18.3431 11.2286 19.0698 11.9792C21.3452 14.3295 19.1161 18.1904 15.9429 17.395C14.9296 17.141 13.8975 17.7369 13.6108 18.7415C12.713 21.8873 8.25483 21.8873 7.35707 18.7415C7.07037 17.7369 6.03826 17.141 5.02491 17.395C1.85171 18.1904 -0.377384 14.3295 1.89806 11.9792C2.62471 11.2286 2.62471 10.0368 1.89806 9.28622C-0.377383 6.93585 1.85171 3.07495 5.02491 3.87035C6.03826 4.12436 7.07037 3.52848 7.35707 2.52388ZM14.4984 8.42213C14.731 8.14298 14.6933 7.72811 14.4142 7.49548C14.135 7.26286 13.7201 7.30057 13.4875 7.57972L10.4491 11.2258C10.1238 11.6162 9.92406 11.8534 9.7595 12.002C9.68319 12.0709 9.63792 12.0984 9.61622 12.1089C9.61181 12.111 9.60867 12.1123 9.60669 12.113C9.6047 12.1123 9.60156 12.111 9.59716 12.1089C9.57546 12.0984 9.53019 12.0709 9.45387 12.002C9.28931 11.8534 9.08956 11.6162 8.76428 11.2258L7.48036 9.68514C7.24774 9.40599 6.83286 9.36827 6.55372 9.6009C6.27457 9.83352 6.23685 10.2484 6.46947 10.5275L7.78141 12.1019C8.06956 12.4477 8.32933 12.7595 8.57197 12.9786C8.83597 13.217 9.16851 13.4293 9.60669 13.4293C10.0449 13.4293 10.3774 13.217 10.6414 12.9786C10.884 12.7595 11.1438 12.4477 11.432 12.1019L14.4984 8.42213Z" fill="black"/>
</svg>
